# xmcd
#
# Track frame offsets: 
#        150
#        13657
#        27814
#        41707
#        55839
#        73082
#        86112
#        101344
#        114392
#        126997
#        140289
#        153407
#        164224
#        178204
#        192857
#        204699
#        220794
#        232887
#        244247
#        259259
#        274954
#
# Disc length: 3885 seconds
#
# Revision: 0
# Processed by: cddbd v1.5.2PL0 Copyright (c) Steve Scherf et al.
# Submitted via: ExactAudioCopy v0.95b4
#
DISCID=390f2b15
DTITLE=The Alley Cats - Let's Roll
DYEAR=1900
DGENRE=Blues
TTITLE0=Waiting for a Train
TTITLE1=Blue Eyes Crying in the Rain
TTITLE2=Long Journey Home
TTITLE3=I am a Pilgrim
TTITLE4=Hesitation Blues
TTITLE5=Old Joe Clarke
TTITLE6=Dark as a Dungeon
TTITLE7=Sparkling Blue Eyes
TTITLE8=You're gonna be Sorry
TTITLE9=Pipeliner's Blues
TTITLE10=Reuben
TTITLE11=Sweet Jenny Lee
TTITLE12=I Passed Through The Backdoor
TTITLE13=Wrong Road Blues
TTITLE14=Panhandle Rag
TTITLE15=Blue and Lonesome
TTITLE16=Southern Railroad Blues
TTITLE17=Bonaparte's Retreat
TTITLE18=Blue Yodel
TTITLE19=Let Her Roll
TTITLE20=Will the Circle Be Unbroken
EXTD=
EXTT0=
EXTT1=
EXTT2=
EXTT3=
EXTT4=
EXTT5=
EXTT6=
EXTT7=
EXTT8=
EXTT9=
EXTT10=
EXTT11=
EXTT12=
EXTT13=
EXTT14=
EXTT15=
EXTT16=
EXTT17=
EXTT18=
EXTT19=
EXTT20=
PLAYORDER=
